# xmcd
#
# Track frame offsets:
#	150
#	31050
#	58650
#	82200
#	109337
#	129662
#	158097
#	179610
#	203385
#
# Disc length: 2944 seconds
#
# Revision: 0
# Processed by: cddbd v1.4PL0 Copyright (c) Steve Scherf et al.
# Submitted via: dBpowerAMP V4.0
#
DISCID=760b7e09
DTITLE=El Sexteto de Simone - Picante - Latin Guitar
DYEAR=2002
DGENRE=Instrumental
TTITLE0=Reunión
TTITLE1=Fuego
TTITLE2=Inspiración
TTITLE3=Amante
TTITLE4=Viva!
TTITLE5=Aventura
TTITLE6=Tranquilo
TTITLE7=Bailar
TTITLE8=Puesta Del Sol
EXTD=
EXTT0=
EXTT1=
EXTT2=
EXTT3=
EXTT4=
EXTT5=
EXTT6=
EXTT7=
EXTT8=
PLAYORDER=
